<?xml version="1.0"?><svg fill="#000000" xmlns="http://www.w3.org/2000/svg" viewBox="0 0 128 128" width="66px" height="66px">    <path d="M 57.087891 11.037109 C 56.550391 11.024609 56 11.150391 55.5 11.400391 C 54.5 11.900391 53.900391 12.9 53.900391 14 L 53.900391 32 C 53.900391 33.1 54.5 34.099609 55.5 34.599609 C 56 34.899609 56.5 35 57 35 C 57.6 35 58.099609 34.8 58.599609 34.5 L 72.599609 25.5 C 73.499609 25 74 24 74 23 C 74 22 73.499609 21 72.599609 20.5 L 58.599609 11.5 C 58.149609 11.2 57.625391 11.049609 57.087891 11.037109 z M 23.087891 15.037109 C 22.550391 15.024609 22 15.150391 21.5 15.400391 C 20.5 15.900391 19.900391 16.9 19.900391 18 L 19.900391 36 C 19.900391 37.1 20.5 38.099609 21.5 38.599609 C 22 38.899609 22.5 39 23 39 C 23.6 39 24.099609 38.8 24.599609 38.5 L 38.599609 29.5 C 39.499609 29 40 28 40 27 C 40 26 39.499609 25 38.599609 24.5 L 24.599609 15.5 C 24.149609 15.2 23.625391 15.049609 23.087891 15.037109 z M 91.087891 15.037109 C 90.550391 15.024609 90 15.150391 89.5 15.400391 C 88.5 15.900391 87.900391 16.9 87.900391 18 L 87.900391 36 C 87.900391 37.1 88.5 38.099609 89.5 38.599609 C 90 38.899609 90.5 39 91 39 C 91.6 39 92.099609 38.8 92.599609 38.5 L 106.59961 29.5 C 107.49961 29 108 28 108 27 C 108 26 107.49961 25 106.59961 24.5 L 92.599609 15.5 C 92.149609 15.2 91.625391 15.049609 91.087891 15.037109 z M 64 45.199219 C 47.8 45.199219 32.400391 46.7 20.900391 49.5 C 7.7003906 52.7 1 57.099609 1 62.599609 L 1 62.800781 L 1 63 L 1 109.59961 C 1 115.09961 7.7003906 119.49922 20.900391 122.69922 C 32.500391 125.49922 47.8 127 64 127 C 80.2 127 95.599609 125.49922 107.09961 122.69922 C 120.29961 119.49922 127 115.09961 127 109.59961 L 127 63 L 127 62.800781 L 127 62.599609 C 127 57.099609 120.29961 52.7 107.09961 49.5 C 95.499609 46.7 80.2 45.199219 64 45.199219 z M 64 57.199219 C 75.8 57.199219 86.999219 57.999609 96.699219 59.599609 C 98.299219 59.899609 99.399219 61.399609 99.199219 63.099609 C 98.999219 64.599609 97.699219 65.599609 96.199219 65.599609 L 95.699219 65.599609 C 89.199219 64.499609 78.5 63.199219 64 63.199219 C 49.5 63.199219 38.800781 64.499609 32.300781 65.599609 C 30.700781 65.899609 29.100781 64.799609 28.800781 63.099609 C 28.600781 61.499609 29.700781 59.899609 31.300781 59.599609 C 41.000781 57.999609 52.2 57.199219 64 57.199219 z M 6.9003906 70.699219 L 7 70.699219 C 10.3 72.599219 14.900391 74.299219 20.900391 75.699219 C 32.400391 78.499219 47.7 80 64 80 C 80.3 80 95.599609 78.499219 107.09961 75.699219 C 113.09961 74.299219 117.7 72.599219 121 70.699219 L 121 109.59961 C 121 110.29961 119.3 112.39922 113 114.69922 L 113 103 C 113 102.1 112.60078 101.19961 111.80078 100.59961 C 111.00078 99.999609 110.09922 99.799609 109.19922 100.09961 L 101.19922 102.09961 C 99.899219 102.39961 98.900391 103.6 98.900391 105 L 98.900391 118.30078 C 91.500391 119.60078 83.000391 120.50078 73.900391 120.80078 L 73.900391 109 C 73.900391 107.3 72.600391 106 70.900391 106 L 57 106 C 55.3 106 54 107.3 54 109 L 54 120.80078 C 44.5 120.40078 35.6 119.49961 28 118.09961 L 28 105 C 28 103.6 27.099219 102.39961 25.699219 102.09961 L 17.699219 100.09961 C 16.799219 99.899609 15.899609 100.09961 15.099609 100.59961 C 14.399609 101.19961 13.900391 102 13.900391 103 L 13.900391 114.40039 C 8.4003906 112.30039 6.9003906 110.29961 6.9003906 109.59961 L 6.9003906 70.699219 z"/></svg>