<?xml version="1.0" encoding="UTF-8"?>
<svg xmlns="http://www.w3.org/2000/svg" xmlns:xlink="http://www.w3.org/1999/xlink" width="60pt" height="60pt" viewBox="0 0 60 60" version="1.1">
<g id="surface379243">
<path style=" stroke:none;fill-rule:nonzero;fill:rgb(0%,0%,0%);fill-opacity:1;" d="M 30 6 C 16.746094 6 6 16.746094 6 30 C 6 43.253906 16.746094 54 30 54 C 43.253906 54 54 43.253906 54 30 C 54 16.746094 43.253906 6 30 6 Z M 44 16 L 34 34 L 16 44 L 26 26 Z M 30 28 C 28.894531 28 28 28.894531 28 30 C 28 31.105469 28.894531 32 30 32 C 31.105469 32 32 31.105469 32 30 C 32 28.894531 31.105469 28 30 28 Z M 30 28 "/>
</g>
</svg>
