<?xml version="1.0" encoding="UTF-8"?>
<svg xmlns="http://www.w3.org/2000/svg" xmlns:xlink="http://www.w3.org/1999/xlink" width="90pt" height="90pt" viewBox="0 0 90 90" version="1.1">
<g id="surface378777">
<path style=" stroke:none;fill-rule:nonzero;fill:rgb(0%,0%,0%);fill-opacity:1;" d="M 45 9 C 25.117188 9 9 25.117188 9 45 C 9 64.882812 25.117188 81 45 81 C 64.882812 81 81 64.882812 81 45 C 81 25.117188 64.882812 9 45 9 Z M 66 24 L 51 51 L 24 66 L 39 39 Z M 45 42 C 43.34375 42 42 43.34375 42 45 C 42 46.65625 43.34375 48 45 48 C 46.65625 48 48 46.65625 48 45 C 48 43.34375 46.65625 42 45 42 Z M 45 42 "/>
</g>
</svg>
