<svg fill="#000000" xmlns="http://www.w3.org/2000/svg" viewBox="0 0 128 128" width="66px" height="66px"><path d="M 4 1 C 2.3 1 1 2.3 1 4 L 1 14 C 1 15.7 2.3 17 4 17 C 5.7 17 7 15.7 7 14 L 7 4 C 7 2.3 5.7 1 4 1 z M 91 4 C 86 4 82 8 82 13 C 82 14.5 82.4 15.899219 83 17.199219 L 66.5 35.099609 C 65.4 34.599609 64.2 34.400391 63 34.400391 C 60.8 34.400391 58.799219 35.2 57.199219 36.5 L 44.800781 29.099609 C 44.900781 28.499609 45 28.000391 45 27.400391 C 45 22.400391 41 18.400391 36 18.400391 C 31 18.400391 27 22.400391 27 27.400391 C 27 32.400391 31 36.400391 36 36.400391 C 38.2 36.400391 40.200781 35.600781 41.800781 34.300781 L 54.199219 41.699219 C 54.099219 42.299219 54 42.800391 54 43.400391 C 54 48.400391 58 52.400391 63 52.400391 C 68 52.400391 72 48.400391 72 43.400391 C 72 41.900391 71.6 40.499219 71 39.199219 L 87.5 21.300781 C 88.6 21.800781 89.8 22 91 22 C 94.9 22 98.2 19.5 99.5 16 L 124 16 C 125.7 16 127 14.7 127 13 C 127 11.3 125.7 10 124 10 L 99.5 10 C 98.3 6.5 94.9 4 91 4 z M 91 10 C 92.7 10 94 11.3 94 13 C 94 14.7 92.7 16 91 16 C 89.3 16 88 14.7 88 13 C 88 11.3 89.3 10 91 10 z M 36 24.300781 C 37.7 24.300781 39 25.600781 39 27.300781 C 39 29.000781 37.7 30.300781 36 30.300781 C 34.3 30.300781 33 29.000781 33 27.300781 C 33 25.600781 34.3 24.300781 36 24.300781 z M 4 31 C 2.3 31 1 32.3 1 34 L 1 124 C 1 125.7 2.3 127 4 127 L 124 127 C 125.7 127 127 125.7 127 124 C 127 122.3 125.7 121 124 121 L 7 121 L 7 34 C 7 32.3 5.7 31 4 31 z M 63 40.300781 C 64.7 40.300781 66 41.600781 66 43.300781 C 66 45.000781 64.7 46.300781 63 46.300781 C 61.3 46.300781 60 45.000781 60 43.300781 C 60 41.600781 61.3 40.300781 63 40.300781 z M 84 46 C 82.3 46 81 47.3 81 49 L 81 109 C 81 110.7 82.3 112 84 112 L 98 112 C 99.7 112 101 110.7 101 109 L 101 49 C 101 47.3 99.7 46 98 46 L 84 46 z M 87 52 L 95 52 L 95 106 L 87 106 L 87 52 z M 29 61 C 27.3 61 26 62.3 26 64 L 26 109 C 26 110.7 27.3 112 29 112 L 43 112 C 44.7 112 46 110.7 46 109 L 46 64 C 46 62.3 44.7 61 43 61 L 29 61 z M 32 67 L 40 67 L 40 106 L 32 106 L 32 67 z M 56 76 C 54.3 76 53 77.3 53 79 L 53 109 C 53 110.7 54.3 112 56 112 L 70 112 C 71.7 112 73 110.7 73 109 L 73 79 C 73 77.3 71.7 76 70 76 L 56 76 z M 59 82 L 67 82 L 67 106 L 59 106 L 59 82 z"/></svg>