<?xml version="1.0"?><svg fill="#000000" xmlns="http://www.w3.org/2000/svg" viewBox="0 0 64 64" width="66px" height="66px">    <path d="M 34.96875 4 C 27.81675 4 22 9.81675 22 16.96875 C 22 20.37475 23.767172 22.848297 25.326172 25.029297 C 26.701172 26.951297 28 28.767859 28 31.005859 L 28 32.005859 L 28 33 C 28 36.859 31.14 40 35 40 C 38.86 40 42 36.859 42 33 L 42 32 L 42 31 C 42 28.763 43.285484 26.947391 44.646484 25.025391 C 46.189484 22.844391 47.939453 20.37475 47.939453 16.96875 C 47.938453 9.81775 42.12075 4 34.96875 4 z M 34.96875 6 C 41.01675 6 45.9375 10.92075 45.9375 16.96875 C 45.9375 19.73775 44.517672 21.744141 43.013672 23.869141 C 41.708672 25.712141 40.3655 27.611 40.0625 30 L 29.935547 30 C 29.628547 27.607 28.271125 25.708234 26.953125 23.865234 C 25.435125 21.741234 24 19.73375 24 16.96875 C 24 10.92075 28.92075 6 34.96875 6 z M 31 16 C 30.74425 16 30.488469 16.097469 30.292969 16.292969 C 29.901969 16.683969 29.901969 17.316031 30.292969 17.707031 L 32.292969 19.707031 C 32.487969 19.902031 32.744 20 33 20 C 33.256 20 33.512031 19.902031 33.707031 19.707031 C 34.098031 19.316031 34.098031 18.683969 33.707031 18.292969 L 31.707031 16.292969 C 31.511531 16.097469 31.25575 16 31 16 z M 39 16 C 38.74425 16 38.488469 16.097469 38.292969 16.292969 L 34.292969 20.292969 C 34.104969 20.479969 34 20.734 34 21 L 34 27 C 34 27.553 34.448 28 35 28 C 35.552 28 36 27.553 36 27 L 36 21.414062 L 39.707031 17.707031 C 40.098031 17.316031 40.098031 16.683969 39.707031 16.292969 C 39.511531 16.097469 39.25575 16 39 16 z M 40 32 L 40 33 C 40 35.757 37.757 38 35 38 C 32.243 38 30 35.757 30 33 L 30 32.005859 L 40 32 z M 20.294922 37.324219 C 19.691344 37.310688 19.084969 37.338656 18.480469 37.410156 L 6.6484375 38.798828 C 5.1384375 38.977828 4 40.258344 4 41.777344 L 4 54.439453 C 4 55.369453 4.4193437 56.230734 5.1523438 56.802734 C 5.8853437 57.375734 6.8245625 57.578609 7.7265625 57.349609 L 14.289062 55.710938 C 15.961063 55.292938 17.723047 55.504641 19.248047 56.306641 L 31.835938 62.935547 C 33.147937 63.626547 34.587297 63.972656 36.029297 63.972656 C 37.451297 63.972656 38.872875 63.636891 40.171875 62.962891 L 61.474609 51.917969 C 63.032609 51.108969 64 49.517859 64 47.755859 C 64 46.297859 63.338547 44.947688 62.185547 44.054688 C 61.031547 43.161687 59.558484 42.861562 58.146484 43.226562 L 44.736328 46.703125 C 44.473328 45.922125 44.01925 45.208672 43.40625 44.638672 C 42.39325 43.696672 41.019625 43.2115 39.640625 43.3125 L 37.449219 43.470703 C 36.593219 43.527703 35.733031 43.370906 34.957031 43.003906 L 25.546875 38.564453 C 23.894625 37.784453 22.105656 37.364812 20.294922 37.324219 z M 20.25 39.320312 C 21.782297 39.354953 23.295359 39.711094 24.693359 40.371094 L 34.103516 44.810547 C 35.188516 45.323547 36.39675 45.553891 37.59375 45.462891 L 39.785156 45.304688 C 40.626156 45.252688 41.427922 45.528562 42.044922 46.101562 C 42.661922 46.676563 43 47.455828 43 48.298828 L 43 48.705078 C 43 49.099078 42.769156 49.456187 42.410156 49.617188 L 39.460938 50.943359 C 37.244937 51.937359 34.680734 51.991844 32.427734 51.089844 L 27.382812 49.070312 C 26.866812 48.864312 26.287031 49.114906 26.082031 49.628906 C 25.876031 50.141906 26.127625 50.724687 26.640625 50.929688 L 31.683594 52.947266 C 34.436594 54.050266 37.570297 53.984531 40.279297 52.769531 L 43.228516 51.443359 C 44.304516 50.960359 45 49.885078 45 48.705078 L 58.646484 45.160156 C 59.454484 44.953156 60.299938 45.124719 60.960938 45.636719 C 61.621938 46.148719 62 46.921672 62 47.763672 C 62 48.768672 61.446687 49.679578 60.554688 50.142578 L 39.251953 61.1875 C 37.216953 62.2405 34.793578 62.234969 32.767578 61.167969 L 20.179688 54.537109 C 18.875688 53.850109 17.439234 53.501953 15.990234 53.501953 C 15.260234 53.501953 14.527641 53.590484 13.806641 53.771484 L 7.2441406 55.410156 C 6.9451406 55.486156 6.6297656 55.418563 6.3847656 55.226562 C 6.1397656 55.035562 6 54.749453 6 54.439453 L 6 41.777344 C 6 41.270344 6.3798125 40.844156 6.8828125 40.785156 L 18.714844 39.394531 C 19.226594 39.334281 19.739234 39.308766 20.25 39.320312 z M 9 42 C 8.448 42 8 42.447 8 43 C 8 43.553 8.448 44 9 44 L 11 44 C 11.552 44 12 43.553 12 43 C 12 42.447 11.552 42 11 42 L 9 42 z M 9 47 C 8.448 47 8 47.447 8 48 C 8 48.553 8.448 49 9 49 L 11 49 C 11.552 49 12 48.553 12 48 C 12 47.447 11.552 47 11 47 L 9 47 z M 9 52 C 8.448 52 8 52.447 8 53 C 8 53.553 8.448 54 9 54 L 11 54 C 11.552 54 12 53.553 12 53 C 12 52.447 11.552 52 11 52 L 9 52 z"/></svg>